<?xml version="1.0" encoding="UTF-8"?>
<svg class="animate" xmlns="http://www.w3.org/2000/svg" version="2.0" preserveAspectRatio="xMidYMid meet" xmlns:xlink="http://www.w3.org/1999/xlink" viewBox="0 0 20 130" transform-origin="172 200" transform="scale(1) translate(0,0)">
  <link xmlns="http://www.w3.org/1999/xhtml" rel="stylesheet" href="" type="text/css"/>
  <style>
/* <![CDATA[ */
@import url('https://fonts.googleapis.com/css2?family=Roboto:wght@400;500;700;900&display=swap');

svg {
  fill: transparent;
  padding: 0;
  width: 100%;
  height: 100%;
  margin: auto;
  overflow: hidden;
}
g rect {
  fill: #ccc;
  cursor: pointer;
}
g.position rect {
  pointer-events: none;
}
g.scalemarks rect {
  fill: #ccc;
  opacity: 0.5;
}
g text {
  pointer-events: none;
  user-select: none;
  font-family: 'Roboto', sans-serif;
  font-weight: 900;
  fill: #000000;
  font-size: 90%;
  width: 90%
  height: 90%
}

/* ]]> */
</style>
  <g class="reset">
    <rect x="0" y="0" width="20" height="20" rx="2.5">
      <set attributeName="fill" to="#b2dfe4" begin="mouseover" end="mouseout" />
    </rect>
    <text x="10" y="11.5" width="20" height="20" dominant-baseline="middle" text-anchor="middle">&#8630;</text>
  </g>
  <g class="in">
    <rect x="0" y="22.5" width="20" height="20" rx="2.5">
      <set attributeName="fill" to="#b2dfe4" begin="mouseover" end="mouseout" />
    </rect>
    <text x="10" y="33.5" width="20" height="20" dominant-baseline="middle" text-anchor="middle">&#65291;</text>
  </g>
  <g class="position" data-min="45" data-max="105">
    <g class="scalemarks">
      <rect x="2" y="45" width="16" height="3" rx="1.5"/>
      <rect x="2" y="50" width="16" height="3" rx="1.5"/>
      <rect x="2" y="55" width="16" height="3" rx="1.5"/>
      <rect x="2" y="60" width="16" height="3" rx="1.5"/>
      <rect x="2" y="65" width="16" height="3" rx="1.5"/>
      <rect x="2" y="70" width="16" height="3" rx="1.5"/>
      <rect x="2" y="75" width="16" height="3" rx="1.5"/>
      <rect x="2" y="80" width="16" height="3" rx="1.5"/>
      <rect x="2" y="85" width="16" height="3" rx="1.5"/>
      <rect x="2" y="90" width="16" height="3" rx="1.5"/>
      <rect x="2" y="95" width="16" height="3" rx="1.5"/>
      <rect x="2" y="100" width="16" height="3" rx="1.5"/>
      <rect x="2" y="105" width="16" height="3" rx="1.5"/>
    </g>
    <rect class="slide" x="0" y="105" width="20" height="3" rx="1.5"/>
  </g>
  <g class="out">
    <rect x="0" y="110" width="20" height="20" rx="2.5">
      <set attributeName="fill" to="#b2dfe4" begin="mouseover" end="mouseout" />
    </rect>
    <text x="10" y="122" width="20" height="20" dominant-baseline="middle" text-anchor="middle">&#8722;</text>
  </g>
  <script xlink:href="control.js" />
</svg>